<?xml version="1.0" encoding="UTF-8"?>
<svg width="185.11" height="185.11" data-name="Layer 2" version="1.1" viewBox="0 0 185.11 185.11" xmlns="http://www.w3.org/2000/svg">
 <defs>
  <style>.cls-1 {
        fill: #fff;
      }

      .cls-2 {
        fill: #5b9bd5;
      }</style>
  <mask id="mask26" maskUnits="userSpaceOnUse">
   <path class="cls-2" d="m111.98 103.4s0-0.03-0.05-0.1c-1.65-3.72-47.09-77.6-53.45-103.3-6.38 25.84-46.16 90.34-50.79 98.69s-7.27 17.95-7.27 28.17c0 32.17 26.08 58.25 58.25 58.25s58.25-26.08 58.25-58.25c0-8.35-1.77-16.28-4.93-23.46" fill="#fff"/>
  </mask>
 </defs>
 <g transform="translate(31.1)" mask="url(#mask26)" data-name="Layer 1">
  <path class="cls-2" d="m111.98 103.4s0-0.03-0.05-0.1c-1.65-3.72-47.09-77.6-53.45-103.3-6.38 25.84-46.16 90.34-50.79 98.69s-7.27 17.95-7.27 28.17c0 32.17 26.08 58.25 58.25 58.25s58.25-26.08 58.25-58.25c0-8.35-1.77-16.28-4.93-23.46"/>
  <path class="cls-1" d="m80.58 107.33c0 3.61-2.92 6.53-6.53 6.53s-6.53-2.92-6.53-6.53 2.92-6.53 6.53-6.53 6.53 2.92 6.53 6.53"/>
  <path class="cls-1" d="m74.05 115.36c-4.43 0-8.03-3.6-8.03-8.03s3.6-8.03 8.03-8.03 8.03 3.6 8.03 8.03-3.6 8.03-8.03 8.03m0-13.06c-2.77 0-5.03 2.26-5.03 5.03s2.26 5.03 5.03 5.03 5.03-2.26 5.03-5.03-2.26-5.03-5.03-5.03"/>
  <path class="cls-1" d="m63.8 122.87c0 3.61-2.93 6.53-6.53 6.53s-6.53-2.92-6.53-6.53 2.92-6.53 6.53-6.53 6.53 2.92 6.53 6.53"/>
  <path class="cls-1" d="m57.27 130.91c-4.43 0-8.03-3.6-8.03-8.03s3.6-8.03 8.03-8.03 8.03 3.6 8.03 8.03-3.6 8.03-8.03 8.03m0-13.06c-2.77 0-5.03 2.26-5.03 5.03s2.26 5.03 5.03 5.03 5.03-2.26 5.03-5.03-2.26-5.03-5.03-5.03"/>
  <path class="cls-1" d="m21.19 89.82c0 3.61-2.93 6.53-6.53 6.53s-6.53-2.92-6.53-6.53 2.92-6.53 6.53-6.53 6.53 2.92 6.53 6.53"/>
  <path class="cls-1" d="m14.66 97.85c-4.43 0-8.03-3.6-8.03-8.03s3.6-8.03 8.03-8.03 8.03 3.6 8.03 8.03-3.6 8.03-8.03 8.03m0-13.06c-2.77 0-5.03 2.26-5.03 5.03s2.26 5.03 5.03 5.03 5.03-2.26 5.03-5.03-2.26-5.03-5.03-5.03"/>
  <path class="cls-1" d="m105.54 86.06c0 3.61-2.93 6.53-6.53 6.53s-6.53-2.92-6.53-6.53 2.92-6.53 6.53-6.53 6.53 2.92 6.53 6.53"/>
  <path class="cls-1" d="m99.01 94.09c-4.43 0-8.03-3.6-8.03-8.04s3.6-8.03 8.03-8.03 8.03 3.6 8.03 8.03-3.6 8.04-8.03 8.04m0-13.06c-2.77 0-5.03 2.26-5.03 5.03s2.26 5.03 5.03 5.03 5.03-2.26 5.03-5.03-2.26-5.03-5.03-5.03"/>
  <path class="cls-1" d="m39.78 149.57c0 3.61-2.92 6.53-6.53 6.53s-6.53-2.92-6.53-6.53 2.92-6.53 6.53-6.53 6.53 2.92 6.53 6.53"/>
  <path class="cls-1" d="m33.24 157.6c-4.43 0-8.03-3.6-8.03-8.03s3.6-8.03 8.03-8.03 8.03 3.6 8.03 8.03-3.6 8.03-8.03 8.03m0-13.06c-2.77 0-5.03 2.26-5.03 5.03s2.26 5.03 5.03 5.03 5.03-2.26 5.03-5.03-2.26-5.03-5.03-5.03"/>
  <path class="cls-1" d="m76.15 157c0 3.61-2.93 6.53-6.53 6.53s-6.53-2.92-6.53-6.53 2.92-6.53 6.53-6.53 6.53 2.92 6.53 6.53"/>
  <path class="cls-1" d="m69.62 165.04c-4.43 0-8.04-3.6-8.04-8.04s3.6-8.03 8.04-8.03 8.03 3.6 8.03 8.03-3.6 8.04-8.03 8.04m0-13.06c-2.77 0-5.03 2.26-5.03 5.03s2.26 5.03 5.03 5.03 5.03-2.26 5.03-5.03-2.26-5.03-5.03-5.03"/>
  <path class="cls-1" d="m97.85 126.32c0 3.61-2.92 6.53-6.53 6.53s-6.53-2.92-6.53-6.53 2.92-6.53 6.53-6.53 6.53 2.92 6.53 6.53"/>
  <path class="cls-1" d="m91.32 134.35c-4.43 0-8.03-3.6-8.03-8.04s3.6-8.03 8.03-8.03 8.03 3.6 8.03 8.03-3.6 8.04-8.03 8.04m0-13.06c-2.77 0-5.03 2.26-5.03 5.03s2.26 5.03 5.03 5.03 5.03-2.26 5.03-5.03-2.26-5.03-5.03-5.03"/>
  <path class="cls-1" d="m38.56 57.47c0 3.61-2.92 6.53-6.53 6.53s-6.53-2.92-6.53-6.53 2.92-6.53 6.53-6.53 6.53 2.92 6.53 6.53"/>
  <path class="cls-1" d="m32.03 65.5c-4.43 0-8.03-3.6-8.03-8.03s3.6-8.03 8.03-8.03 8.03 3.6 8.03 8.03-3.6 8.03-8.03 8.03m0-13.06c-2.77 0-5.03 2.26-5.03 5.03s2.26 5.03 5.03 5.03 5.03-2.26 5.03-5.03-2.26-5.03-5.03-5.03"/>
 </g>
</svg>
