<?xml version="1.0" encoding="UTF-8" standalone="no"?>
<svg
   id="Layer_2"
   data-name="Layer 2"
   viewBox="0 0 140.00001 140"
   version="1.1"
   sodipodi:docname="logo.svg"
   width="140"
   height="140"
   inkscape:version="1.4 (86a8ad7, 2024-10-11)"
   xmlns:inkscape="http://www.inkscape.org/namespaces/inkscape"
   xmlns:sodipodi="http://sodipodi.sourceforge.net/DTD/sodipodi-0.dtd"
   xmlns="http://www.w3.org/2000/svg"
   xmlns:svg="http://www.w3.org/2000/svg">
  <sodipodi:namedview
     id="namedview22"
     pagecolor="#f03226"
     bordercolor="#000000"
     borderopacity="0.25"
     inkscape:showpageshadow="2"
     inkscape:pageopacity="0.0"
     inkscape:pagecheckerboard="0"
     inkscape:deskcolor="#d1d1d1"
     inkscape:zoom="4.35957"
     inkscape:cx="60.556431"
     inkscape:cy="60.441741"
     inkscape:window-width="1920"
     inkscape:window-height="1009"
     inkscape:window-x="-8"
     inkscape:window-y="-8"
     inkscape:window-maximized="1"
     inkscape:current-layer="Layer_2" />
  <defs
     id="defs1">
    <style
       id="style1">
      .cls-1 {
        fill: #fff;
      }

      .cls-2 {
        fill: #5b9bd5;
      }
    </style>
    <linearGradient
       id="SVGID_1_"
       gradientUnits="userSpaceOnUse"
       x1="351.8252"
       y1="-221.0186"
       x2="350.8956"
       y2="-159.8998"
       gradientTransform="matrix(1,0,0,-1,-300.5195,-156.5547)">
	<stop
   offset="0"
   style="stop-color:#589632"
   id="stop1" />

	<stop
   offset="1"
   style="stop-color:#93B023"
   id="stop2" />

</linearGradient>
    <filter
       id="mask-powermask-path-effect35_inverse"
       inkscape:label="filtermask-powermask-path-effect35"
       style="color-interpolation-filters:sRGB"
       height="100"
       width="100"
       x="-50"
       y="-50">
      <feColorMatrix
         id="mask-powermask-path-effect35_primitive1"
         values="1"
         type="saturate"
         result="fbSourceGraphic" />
      <feColorMatrix
         id="mask-powermask-path-effect35_primitive2"
         values="-1 0 0 0 1 0 -1 0 0 1 0 0 -1 0 1 0 0 0 1 0 "
         in="fbSourceGraphic" />
    </filter>
    <clipPath
       clipPathUnits="userSpaceOnUse"
       id="clipPath38">
      <path
         id="path39"
         style="display:inline;fill:#5b9bd5;fill-opacity:1;stroke-width:1.7298"
         d="m 59.365433,67.303306 c -11.734832,0.131456 -23.383274,4.111472 -32.74862,11.184173 -9.524164,7.14616 -16.6392234,17.431004 -19.9394704,28.873411 -3.3490349,11.38658 -2.892603,23.84001 1.2711239,34.95419 4.3944345,11.90547 13.0184565,22.18494 23.9847355,28.57281 9.177041,5.40139 19.935266,8.07852 30.573968,7.58724 0.434779,-0.0286 0.951291,-0.0457 1.425721,-0.0859 1.192255,-0.0812 2.383077,-0.2126 3.433753,-0.35213 4.034999,-0.54163 8.008986,-1.53581 11.828323,-2.9442 -4.521299,-4.53517 -9.040813,-9.07214 -13.563236,-13.60618 -0.0221,-0.46053 -0.567474,-0.65281 -0.807335,-1.0169 -1.045792,-1.03609 -2.092435,-2.07137 -3.138302,-3.10738 -2.729303,0.12611 -5.472903,-0.0614 -8.155807,-0.5806 -1.281344,-0.25049 -2.846737,-0.63184 -4.194709,-1.0856 -9.098731,-2.88238 -16.720339,-9.84931 -20.664355,-18.51032 -4.538794,-9.66264 -3.998028,-21.42442 1.09935,-30.76292 5.714219,-10.783033 17.600268,-17.876574 29.775222,-18.005299 0.675896,-0.0057 1.35154,-0.0011 2.026927,0.02577 0.471386,0.0207 0.942826,0.04956 1.291737,0.07901 2.267643,0.190427 4.516618,0.601701 6.704321,1.22818 6.920854,1.941775 13.166598,6.14351 17.589611,11.807719 4.765008,5.97757 7.421038,13.58378 7.410309,21.22776 0.0091,0.46646 -0.02049,1.16458 -0.02577,1.48756 -0.03887,0.91179 -0.118941,1.82164 -0.228454,2.72777 5.717694,5.62281 11.435604,11.24536 17.153304,16.86816 4.24157,-10.2508 5.36587,-21.79073 2.98886,-32.64041 C 111.61547,97.806402 103.57775,85.568876 92.383736,77.633729 91.812127,77.221738 91.212928,76.826707 90.729557,76.496588 85.458903,73.02574 79.600668,70.4504 73.476627,68.924848 72.975813,68.802928 72.07666,68.593844 71.580248,68.488543 70.440489,68.251232 69.279941,68.039529 68.065761,67.866723 65.185797,67.438849 62.276205,67.263388 59.365433,67.303306 Z M 55.83377,120.31433 v 15.71556 l 13.815744,13.6852 6.907012,7.09596 25.798664,25.88283 h 17.37318 v -15.2157 L 92.454165,140.6609 85.529975,133.8518 71.760609,120.31433 Z" />
    </clipPath>
  </defs>
  <path
     class="cls-2"
     d="m 111.98428,53.96 c 0,0 0,-0.03 -0.05,-0.1 -1.65,-3.72 -47.09,-77.6 -53.45,-103.3 -6.38,25.84 -46.16,90.34 -50.7900002,98.69 -4.63,8.35 -7.27,17.95 -7.27,28.17 0,32.17 26.0800002,58.25 58.2500002,58.25 32.17,0 58.25,-26.08 58.25,-58.25 0,-8.35 -1.77,-16.28 -4.93,-23.46"
     id="path1"
     style="display:none" />
  <circle
     style="display:none;fill:#5b9bd5;fill-opacity:1;stroke-width:1.0701"
     id="path23"
     inkscape:label="bigblue"
     r="67.255623"
     cy="68.86647"
     cx="69.450645" />
  <path
     id="polygon24"
     style="display:none;fill:#ffffff;fill-opacity:1"
     d="m 71.041438,145.78478 v 15.23489 L 83.04073,172.8632 v 0.13482 c 5.828125,5.82747 11.656048,11.65478 17.48417,17.48226 h 16.21093 v -14.95831 c -4.51482,-4.42262 -9.02927,-8.84545 -13.54409,-13.26808 0.001,0 0.003,10e-6 0.004,0 -5.601558,-5.48959 -11.203214,-10.97953 -16.804777,-16.46911 z"
     inkscape:label="tail mask"
     transform="matrix(1.9634947,0,0,1.9701894,-83.385971,-229.88574)" />
  <g
     id="g22"
     transform="matrix(1.9634947,0,0,1.9701894,-83.385971,-229.88574)"
     inkscape:label="qgis tail"
     style="display:none">
    <polygon
       fill="#ee7913"
       points="43.81,35.438 35.836,27.625 26.613,27.625 26.613,36.695 34.613,44.593 34.613,35.471 "
       id="polygon1"
       transform="translate(48.77453,122.50878)" />
    <polygon
       fill="url(#SVGID_1_)"
       points="47.819,39.367 38.613,39.354 38.613,48.688 53.553,63.625 63.613,63.625 63.613,54.844 "
       id="polygon2"
       style="fill:url(#SVGID_1_)"
       transform="translate(48.77453,122.50878)" />
    <polygon
       fill="#f0e64a"
       points="47.819,39.367 43.81,35.438 34.613,35.471 34.613,44.593 38.613,48.688 38.613,39.354 "
       id="polygon3"
       transform="translate(48.77453,122.50878)" />
    <polygon
       opacity="0.15"
       fill="#ffffff"
       enable-background="new    "
       points="35.836,27.625 63.613,54.844 63.613,63.625 26.532,27.625 "
       id="polygon4"
       transform="translate(48.77453,122.50878)" />
  </g>
  <path
     id="circle35"
     style="fill:#5b9bd5;fill-opacity:1;stroke-width:1.0701"
     inkscape:label="cut up blue"
     d="M 68.652344 5.6308594 C 55.30943 5.7803295 42.064743 10.305747 31.416016 18.347656 C 20.586709 26.47309 12.496637 38.167318 8.7441406 51.177734 C 4.9361707 64.124677 5.4551498 78.284658 10.189453 90.921875 C 15.186079 104.45881 24.991895 116.14693 37.460938 123.41016 C 47.895553 129.55173 60.128031 132.59572 72.224609 132.03711 C 72.718965 132.00461 73.306261 131.98515 73.845703 131.93945 C 75.201338 131.84715 76.555346 131.69773 77.75 131.53906 C 82.337935 130.92321 86.856499 129.79278 91.199219 128.19141 C 86.058343 123.03476 80.919497 117.87608 75.777344 112.7207 C 75.752214 112.19708 75.132108 111.97845 74.859375 111.56445 C 73.670273 110.38638 72.480204 109.20923 71.291016 108.03125 C 68.187703 108.17466 65.068134 107.96145 62.017578 107.37109 C 60.560645 107.08626 58.78074 106.65268 57.248047 106.13672 C 46.902472 102.85934 38.236435 94.937718 33.751953 85.089844 C 28.591184 74.103079 29.206055 60.729529 35.001953 50.111328 C 41.499218 37.850638 55.014073 29.785036 68.857422 29.638672 C 69.62594 29.632192 70.39417 29.637349 71.162109 29.667969 C 71.698091 29.691509 72.234135 29.724322 72.630859 29.757812 C 75.209247 29.974334 77.766411 30.441969 80.253906 31.154297 C 88.123159 33.362163 95.224793 38.139692 100.25391 44.580078 C 105.67189 51.376799 108.69189 60.025323 108.67969 68.716797 C 108.68999 69.247187 108.65639 70.040959 108.65039 70.408203 C 108.60617 71.444932 108.51515 72.479461 108.39062 73.509766 C 114.89183 79.903099 121.39332 86.296137 127.89453 92.689453 C 132.71736 81.033938 133.99572 67.912633 131.29297 55.576172 C 128.06247 40.314019 118.9233 26.399493 106.19531 17.376953 C 105.54537 16.908505 104.86406 16.459341 104.31445 16.083984 C 98.321529 12.137427 91.660514 9.2092157 84.697266 7.4746094 C 84.127823 7.3359817 83.105454 7.0982464 82.541016 6.9785156 C 81.24507 6.7086848 79.925486 6.4679706 78.544922 6.2714844 C 75.270301 5.7849769 71.961994 5.5854719 68.652344 5.6308594 z " />
  <g
     id="g32"
     transform="matrix(1.9634947,0,0,1.9701894,-83.385971,-229.88574)"
     inkscape:label="blue tail"
     style="display:inline">
    <path
       id="polygon29"
       style="fill:#5b9bd5;fill-opacity:1"
       d="M 26.612834 27.625004 L 26.612834 36.694762 L 34.613357 44.592757 L 38.613121 48.687977 L 53.552802 63.625469 L 63.613388 63.625469 L 63.613388 54.844191 L 47.819243 39.367411 L 43.809532 35.437744 L 35.835866 27.625004 L 26.612834 27.625004 z "
       transform="translate(48.77453,122.50878)" />
    <polygon
       opacity="0.15"
       fill="#ffffff"
       enable-background="new    "
       points="63.613,54.844 63.613,63.625 26.532,27.625 35.836,27.625 "
       id="polygon32"
       transform="translate(48.77453,122.50878)" />
  </g>
  <g
     id="Layer_1-2"
     data-name="Layer 1"
     inkscape:label="network"
     transform="matrix(1.137035,0,0,1.137035,1.1517684,-70.895355)"
     style="display:inline"
     clip-path="url(#clipPath38)">
    <rect
       class="cls-1"
       x="-14.419648"
       y="57.958546"
       width="3.4200001"
       height="72.629997"
       transform="rotate(-40.28)"
       id="rect1" />
    <rect
       class="cls-1"
       x="-39.25087"
       y="128.565"
       width="67.650002"
       height="3.4200001"
       transform="rotate(-42.2)"
       id="rect2" />
    <rect
       class="cls-1"
       x="-142.61818"
       y="37.384827"
       width="3.4276929"
       height="114.21111"
       transform="matrix(0.21069672,-0.97755148,0.98173986,0.19022841,0,0)"
       id="rect3"
       style="stroke-width:1.02709" />
    <rect
       class="cls-1"
       x="-14.389833"
       y="86.185043"
       width="3.4200001"
       height="66.510002"
       transform="rotate(-17.28)"
       id="rect4" />
    <rect
       class="cls-1"
       x="-87.975296"
       y="145.78308"
       width="38.119999"
       height="3.4200001"
       transform="rotate(-54.73)"
       id="rect5" />
    <rect
       class="cls-1"
       x="-98.674294"
       y="120.41118"
       width="3.4200001"
       height="31.99"
       transform="rotate(-74.33)"
       id="rect6" />
    <rect
       class="cls-1"
       x="-63.688095"
       y="66.647163"
       width="3.4200001"
       height="53.93"
       transform="rotate(-52.19)"
       id="rect7" />
    <path
       class="cls-1"
       d="m 80.58,107.33 c 0,3.61 -2.92,6.53 -6.53,6.53 -3.61,0 -6.53,-2.92 -6.53,-6.53 0,-3.61 2.92,-6.53 6.53,-6.53 3.61,0 6.53,2.92 6.53,6.53"
       id="path7" />
    <path
       class="cls-1"
       d="m 74.05,115.36 c -4.43,0 -8.03,-3.6 -8.03,-8.03 0,-4.43 3.6,-8.03 8.03,-8.03 4.43,0 8.03,3.6 8.03,8.03 0,4.43 -3.6,8.03 -8.03,8.03 m 0,-13.06 c -2.77,0 -5.03,2.26 -5.03,5.03 0,2.77 2.26,5.03 5.03,5.03 2.77,0 5.03,-2.26 5.03,-5.03 0,-2.77 -2.26,-5.03 -5.03,-5.03"
       id="path8" />
    <path
       class="cls-1"
       d="m 63.8,122.87 c 0,3.61 -2.93,6.53 -6.53,6.53 -3.6,0 -6.53,-2.92 -6.53,-6.53 0,-3.61 2.92,-6.53 6.53,-6.53 3.61,0 6.53,2.92 6.53,6.53"
       id="path9" />
    <path
       class="cls-1"
       d="m 57.27,130.91 c -4.43,0 -8.03,-3.6 -8.03,-8.03 0,-4.43 3.6,-8.03 8.03,-8.03 4.43,0 8.03,3.6 8.03,8.03 0,4.43 -3.6,8.03 -8.03,8.03 m 0,-13.06 c -2.77,0 -5.03,2.26 -5.03,5.03 0,2.77 2.26,5.03 5.03,5.03 2.77,0 5.03,-2.26 5.03,-5.03 0,-2.77 -2.26,-5.03 -5.03,-5.03"
       id="path10" />
    <path
       class="cls-1"
       d="m 21.19,89.82 c 0,3.61 -2.93,6.53 -6.53,6.53 -3.6,0 -6.53,-2.92 -6.53,-6.53 0,-3.61 2.92,-6.53 6.53,-6.53 3.61,0 6.53,2.92 6.53,6.53"
       id="path11" />
    <path
       class="cls-1"
       d="m 14.66,97.85 c -4.43,0 -8.03,-3.6 -8.03,-8.03 0,-4.43 3.6,-8.03 8.03,-8.03 4.43,0 8.03,3.6 8.03,8.03 0,4.43 -3.6,8.03 -8.03,8.03 m 0,-13.06 c -2.77,0 -5.03,2.26 -5.03,5.03 0,2.77 2.26,5.03 5.03,5.03 2.77,0 5.03,-2.26 5.03,-5.03 0,-2.77 -2.26,-5.03 -5.03,-5.03"
       id="path12" />
    <path
       class="cls-1"
       d="m 105.54,86.06 c 0,3.61 -2.93,6.53 -6.53,6.53 -3.6,0 -6.53,-2.92 -6.53,-6.53 0,-3.61 2.92,-6.53 6.53,-6.53 3.61,0 6.53,2.92 6.53,6.53"
       id="path13" />
    <path
       class="cls-1"
       d="m 99.01,94.09 c -4.43,0 -8.03,-3.6 -8.03,-8.04 0,-4.44 3.6,-8.03 8.03,-8.03 4.43,0 8.03,3.6 8.03,8.03 0,4.43 -3.6,8.04 -8.03,8.04 m 0,-13.06 c -2.77,0 -5.03,2.26 -5.03,5.03 0,2.77 2.26,5.03 5.03,5.03 2.77,0 5.03,-2.26 5.03,-5.03 0,-2.77 -2.26,-5.03 -5.03,-5.03"
       id="path14" />
    <path
       class="cls-1"
       d="m 39.78,149.57 c 0,3.61 -2.92,6.53 -6.53,6.53 -3.61,0 -6.53,-2.92 -6.53,-6.53 0,-3.61 2.92,-6.53 6.53,-6.53 3.61,0 6.53,2.92 6.53,6.53"
       id="path15" />
    <path
       class="cls-1"
       d="m 33.24,157.6 c -4.43,0 -8.03,-3.6 -8.03,-8.03 0,-4.43 3.6,-8.03 8.03,-8.03 4.43,0 8.03,3.6 8.03,8.03 0,4.43 -3.6,8.03 -8.03,8.03 m 0,-13.06 c -2.77,0 -5.03,2.26 -5.03,5.03 0,2.77 2.26,5.03 5.03,5.03 2.77,0 5.03,-2.26 5.03,-5.03 0,-2.77 -2.26,-5.03 -5.03,-5.03"
       id="path16" />
    <path
       class="cls-1"
       d="m 76.15,157 c 0,3.61 -2.93,6.53 -6.53,6.53 -3.6,0 -6.53,-2.92 -6.53,-6.53 0,-3.61 2.92,-6.53 6.53,-6.53 3.61,0 6.53,2.92 6.53,6.53"
       id="path17" />
    <path
       class="cls-1"
       d="m 69.62,165.04 c -4.43,0 -8.04,-3.6 -8.04,-8.04 0,-4.44 3.6,-8.03 8.04,-8.03 4.44,0 8.03,3.6 8.03,8.03 0,4.43 -3.6,8.04 -8.03,8.04 m 0,-13.06 c -2.77,0 -5.03,2.26 -5.03,5.03 0,2.77 2.26,5.03 5.03,5.03 2.77,0 5.03,-2.26 5.03,-5.03 0,-2.77 -2.26,-5.03 -5.03,-5.03"
       id="path18" />
    <path
       class="cls-1"
       d="m 97.85,126.32 c 0,3.61 -2.92,6.53 -6.53,6.53 -3.61,0 -6.53,-2.92 -6.53,-6.53 0,-3.61 2.92,-6.53 6.53,-6.53 3.61,0 6.53,2.92 6.53,6.53"
       id="path19" />
    <path
       class="cls-1"
       d="m 91.32,134.35 c -4.43,0 -8.03,-3.6 -8.03,-8.04 0,-4.44 3.6,-8.03 8.03,-8.03 4.43,0 8.03,3.6 8.03,8.03 0,4.43 -3.6,8.04 -8.03,8.04 m 0,-13.06 c -2.77,0 -5.03,2.26 -5.03,5.03 0,2.77 2.26,5.03 5.03,5.03 2.77,0 5.03,-2.26 5.03,-5.03 0,-2.77 -2.26,-5.03 -5.03,-5.03"
       id="path20" />
    <path
       class="cls-1"
       d="m 38.56,57.47 c 0,3.61 -2.92,6.53 -6.53,6.53 -3.61,0 -6.53,-2.92 -6.53,-6.53 0,-3.61 2.92,-6.53 6.53,-6.53 3.61,0 6.53,2.92 6.53,6.53"
       id="path21"
       inkscape:label="path21" />
    <path
       class="cls-1"
       d="M 32.03,65.5 C 27.6,65.5 24,61.9 24,57.47 c 0,-4.43 3.6,-8.03 8.03,-8.03 4.43,0 8.03,3.6 8.03,8.03 0,4.43 -3.6,8.03 -8.03,8.03 m 0,-13.06 c -2.77,0 -5.03,2.26 -5.03,5.03 0,2.77 2.26,5.03 5.03,5.03 2.77,0 5.03,-2.26 5.03,-5.03 0,-2.77 -2.26,-5.03 -5.03,-5.03"
       id="path22"
       inkscape:label="path22" />
  </g>
</svg>
